<svg width="154" height="68" xmlns="http://www.w3.org/2000/svg" style="vector-effect: non-scaling-stroke;" stroke="null">
 <g id="svg_5">
  <ellipse id="svg_11" ry="39.639" rx="31.071" cy="137.831938" cx="249.887377" fill="#EF7057" transform="matrix(0.1581,-0.9874,0.9874,0.1581,-133.5506,259.394) "/>
  <ellipse id="svg_12" ry="31.071" rx="39.64" cy="34.447965" cx="111.517026" fill="#EF7057"/>
  <path id="svg_13" d="m72.517026,41.983965c-1.037,2.158 -2.046,4.252 -4.011,5.756c-6.842,5.234 -14.963,1.092 -20.95,-3.15c-4.347,-3.076 -8.22,-4.767 -13.679,-4.127c-4.955,0.58 -9.767,2.137 -14.744,2.537c-4.942,0.399 -9.477,-0.428 -13.524,-3.408c-1.165,-0.857 -2.06,-1.738 -2.821,-2.668c-0.255,-2.221 -0.223,-4.477 0.139,-6.74c0.098,-0.604 0.222,-1.194 0.359,-1.781c0.986,1.419 1.246,3.29 2.574,4.53c4.042,3.769 7.617,5.653 13.273,4.985c8.133,-0.959 17.017,-4.806 25.021,-1.264c3.977,1.758 7.066,4.828 10.887,6.826c3.092,1.615 8.957,2.932 11.318,-0.691c1.398,-2.143 2.045,-5.111 4.086,-6.787l2.072,5.982" fill="#C95E49"/>
  <path id="svg_14" d="m72.517026,39.983965c-1.037,2.158 -2.046,4.252 -4.011,5.756c-6.842,5.234 -14.963,1.092 -20.95,-3.15c-4.347,-3.076 -8.22,-4.767 -13.679,-4.127c-4.955,0.58 -9.767,2.137 -14.744,2.537c-4.942,0.399 -9.477,-0.428 -13.524,-3.408c-1.165,-0.857 -2.06,-1.738 -2.821,-2.668c-0.255,-2.221 -0.223,-4.477 0.139,-6.74c0.098,-0.604 0.222,-1.194 0.359,-1.781c0.986,1.419 1.246,3.29 2.574,4.53c4.042,3.769 7.617,5.653 13.273,4.985c8.133,-0.959 17.017,-4.806 25.021,-1.264c3.977,1.758 7.066,4.828 10.887,6.826c3.092,1.615 8.957,2.932 11.318,-0.691c1.398,-2.143 2.045,-5.111 4.086,-6.787l2.072,5.982" fill="#FFFFFF"/>
  <path id="svg_15" d="m76.017026,20.621965c-6.001,-8.385 -16.447,-14.841 -29.037,-16.854c-21.617,-3.46 -41.341,7.47 -44.054,24.415s12.613,33.486 34.23,36.947c17.15,2.744 33.1,-3.574 40.316,-14.764c-3.551,-4.656 -5.598,-10.1 -5.598,-15.919c0.003,-4.967 1.499,-9.661 4.143,-13.825z" stroke-miterlimit="10" stroke-width="4" stroke="#C95E49" fill="none"/>
  <path id="svg_16" d="m71.293026,28.918965c0.48,-0.396 0.976,-0.709 1.478,-0.987c2.208,-1.224 4.629,-1.407 7.298,-1.134c0.639,0.065 1.254,0.184 1.859,0.322c6.727,1.538 11.591,7.254 17.662,10.237c4.389,2.157 9.062,2.004 13.104,-0.983c3.092,-2.283 2.934,-7.207 6.656,-8.979c7.105,-3.381 16.264,-1.115 23.773,-0.692c3.027,0.17 5.898,0.125 8.666,-0.568c0.142,1.062 0.215,2.143 0.215,3.233c0,0.69 -0.039,1.372 -0.096,2.052c-1.263,0.295 -2.589,0.471 -4.004,0.489c-4.906,0.068 -9.781,-0.586 -14.673,-0.872c-2.774,-0.164 -10.491,-1.419 -12.274,1.604c-2.297,3.893 -3.438,7.316 -7.832,9.367c-3.317,1.549 -6.83,2.468 -10.5,1.738c-7.705,-1.533 -12.639,-7.971 -19.631,-10.937c-0.21,-0.091 -0.425,-0.177 -0.644,-0.259c-3.175,-1.202 -7.072,-1.606 -8.744,1.848c-0.082,0.169 -0.162,0.337 -0.243,0.505l-2.07,-5.984z" fill="#C95E49"/>
  <path id="svg_17" d="m71.293026,26.918965c0.48,-0.396 0.976,-0.709 1.478,-0.987c2.208,-1.224 4.629,-1.407 7.298,-1.134c0.639,0.065 1.254,0.184 1.859,0.322c6.727,1.538 11.591,7.254 17.662,10.237c4.389,2.157 9.062,2.004 13.104,-0.983c3.092,-2.283 2.934,-7.207 6.656,-8.979c7.105,-3.381 16.264,-1.115 23.773,-0.692c3.027,0.17 5.898,0.125 8.666,-0.568c0.142,1.062 0.215,2.143 0.215,3.233c0,0.69 -0.039,1.372 -0.096,2.052c-1.263,0.295 -2.589,0.471 -4.004,0.489c-4.906,0.068 -9.781,-0.586 -14.673,-0.872c-2.774,-0.164 -10.491,-1.419 -12.274,1.604c-2.297,3.893 -3.438,7.316 -7.832,9.367c-3.317,1.549 -6.83,2.468 -10.5,1.738c-7.705,-1.533 -12.639,-7.971 -19.631,-10.937c-0.21,-0.091 -0.425,-0.177 -0.644,-0.259c-3.175,-1.202 -7.072,-1.606 -8.744,1.848c-0.082,0.169 -0.162,0.337 -0.243,0.505l-2.07,-5.984z" fill="#FFFFFF"/>
  <ellipse id="svg_18" ry="31.071" rx="39.64" cy="34.447965" cx="111.517026" stroke-miterlimit="10" stroke-width="4" stroke="#C95E49" fill="none"/>
 </g>
</svg>
