<svg width="221" height="80" xmlns="http://www.w3.org/2000/svg">
  <g id="logo" fill="#D69D57">
   <path id="svg_3" d="m119.048,19.123c-8.454,0 -15.679,2.864 -21.473,8.505c-5.792,5.646 -8.733,12.64 -8.733,20.773c0,8.052 2.919,15.02 8.676,20.718c5.746,5.682 12.921,8.567 21.313,8.567c3.466,0 7.073,-0.889 10.81,-2.674c2.199,-0.801 4.594,-2.55 7.138,-5.213l3.311,-3.468c0,0 0,8.691 0,9.981c1.283,0 7.874,0 9.157,0c0,-1.472 0,-27.891 0,-27.891c0,-8.149 -2.941,-15.138 -8.735,-20.795c-5.791,-5.639 -13.015,-8.503 -21.464,-8.503zm14.925,43.947l0,0c-4.072,4.062 -9.125,6.116 -15.013,6.116c-6.003,0 -11.08,-2.054 -15.098,-6.121c-4.002,-4.041 -6.036,-8.976 -6.036,-14.658c0,-5.677 2.034,-10.626 6.033,-14.719c4.019,-4.114 9.099,-6.199 15.102,-6.199c5.893,0 10.951,2.085 15.018,6.193c4.058,4.098 6.11,9.048 6.11,14.725c0,5.682 -2.059,10.617 -6.116,14.663z"/>
   <path id="svg_4" d="m31.04,19.102c-8.644,0 -15.965,3.009 -21.769,8.939c-5.825,5.951 -8.771,13.188 -8.771,21.517c0,8.31 3.209,15.293 9.54,20.769c5.865,5.135 13.166,7.763 21.66,7.928c0,-1.296 0,-6.947 0,-8.067c-5.676,-0.165 -10.574,-1.939 -14.528,-5.388c-4.162,-3.634 -6.425,-8.402 -6.734,-14.178l-0.041,-0.826c0,0 48.368,0 50.074,0c-0.152,-8.433 -2.686,-15.597 -7.625,-21.254c-5.459,-6.266 -12.8,-9.44 -21.806,-9.44zm-18.82,22.229l0.338,-1.022c2.781,-8.459 8.999,-12.748 18.481,-12.748c4.203,0 8.159,1.166 11.752,3.468c3.626,2.322 5.99,5.46 7.035,9.32l0.263,0.981l-37.869,0l0,0.001z"/>
   <path id="svg_5" d="m189.279,19.123c-8.757,0 -16.226,2.854 -22.216,8.474c-5.984,5.621 -9.017,12.65 -9.017,20.908c0,8.252 3.055,15.288 9.082,20.908c6.033,5.62 13.484,8.47 22.15,8.47c8.654,0 16.101,-2.85 22.134,-8.47c6.027,-5.626 9.088,-12.656 9.088,-20.908c0,-8.258 -3.038,-15.287 -9.018,-20.908c-5.989,-5.62 -13.463,-8.474 -22.203,-8.474zm15.641,43.983c-4.246,3.995 -9.473,6.019 -15.532,6.019c-6.071,0 -11.298,-2.023 -15.544,-6.019c-4.256,-3.994 -6.406,-8.955 -6.406,-14.729c0,-5.775 2.15,-10.746 6.396,-14.792c4.256,-4.041 9.488,-6.095 15.554,-6.095c6.06,0 11.286,2.054 15.543,6.095c4.246,4.046 6.401,9.017 6.401,14.792c0,5.774 -2.155,10.735 -6.412,14.729z"/>
   <path id="svg_6" d="m74.744,77.883c1.362,0 2.473,-0.435 3.406,-1.316c0.938,-0.888 1.392,-1.941 1.392,-3.236c0,0 0,-71.554 0,-73.077c-1.297,0 -8.305,0 -9.597,0c0,1.522 0,73.077 0,73.077c0,1.295 0.453,2.358 1.381,3.236c0.936,0.882 2.054,1.316 3.418,1.316z"/>
   <path id="svg_7" d="m63.48,7.836l-11.129,13.908l-7.436,-5.408l11.313,-14.137c0,0 2.012,-2.199 5.399,0.263c3.388,2.463 2.381,4.672 1.853,5.374z"/>
  </g>
</svg>
